<?xml version="1.0" encoding="UTF-8" standalone="no"?>
<!DOCTYPE svg PUBLIC "-//W3C//DTD SVG 1.1//EN"
 "http://www.w3.org/Graphics/SVG/1.1/DTD/svg11.dtd">
<!-- Generated by graphviz version 2.43.0 (0)
 -->
<!-- Pages: 1 -->
<svg width="477pt" height="620pt"
 viewBox="0.00 0.00 476.90 620.00" xmlns="http://www.w3.org/2000/svg" xmlns:xlink="http://www.w3.org/1999/xlink">
<g id="graph0" class="graph" transform="scale(1 1) rotate(0) translate(4 616)">
<polygon fill="white" stroke="transparent" points="-4,4 -4,-616 472.9,-616 472.9,4 -4,4"/>
<!-- NOT_0 -->
<g id="node1" class="node">
<title>NOT_0</title>
<ellipse fill="none" stroke="black" cx="291.9" cy="-522" rx="42.49" ry="18"/>
<text text-anchor="middle" x="291.9" y="-518.3" font-family="Times,serif" font-size="14.00">NOT_0</text>
</g>
<!-- _00_ -->
<g id="node2" class="node">
<title>_00_</title>
<ellipse fill="none" stroke="black" cx="313.9" cy="-450" rx="31.4" ry="18"/>
<text text-anchor="middle" x="313.9" y="-446.3" font-family="Times,serif" font-size="14.00">_00_</text>
</g>
<!-- NOT_0&#45;&gt;_00_ -->
<g id="edge1" class="edge">
<title>NOT_0&#45;&gt;_00_</title>
<path fill="none" stroke="black" d="M297.22,-504.05C299.73,-496.06 302.79,-486.33 305.6,-477.4"/>
<polygon fill="black" stroke="black" points="308.96,-478.38 308.62,-467.79 302.28,-476.28 308.96,-478.38"/>
</g>
<!-- NOR_3 -->
<g id="node3" class="node">
<title>NOR_3</title>
<ellipse fill="none" stroke="black" cx="314.9" cy="-378" rx="42.79" ry="18"/>
<text text-anchor="middle" x="314.9" y="-374.3" font-family="Times,serif" font-size="14.00">NOR_3</text>
</g>
<!-- _00_&#45;&gt;NOR_3 -->
<g id="edge2" class="edge">
<title>_00_&#45;&gt;NOR_3</title>
<path fill="none" stroke="black" d="M314.14,-431.7C314.25,-423.98 314.39,-414.71 314.51,-406.11"/>
<polygon fill="black" stroke="black" points="318.01,-406.15 314.65,-396.1 311.01,-406.05 318.01,-406.15"/>
</g>
<!-- _03_ -->
<g id="node16" class="node">
<title>_03_</title>
<ellipse fill="none" stroke="black" cx="184.9" cy="-306" rx="31.4" ry="18"/>
<text text-anchor="middle" x="184.9" y="-302.3" font-family="Times,serif" font-size="14.00">_03_</text>
</g>
<!-- NOR_3&#45;&gt;_03_ -->
<g id="edge29" class="edge">
<title>NOR_3&#45;&gt;_03_</title>
<path fill="none" stroke="black" d="M289.52,-363.34C268.48,-352.01 238.48,-335.85 216,-323.75"/>
<polygon fill="black" stroke="black" points="217.64,-320.65 207.17,-318.99 214.32,-326.82 217.64,-320.65"/>
</g>
<!-- a -->
<g id="node4" class="node">
<title>a</title>
<ellipse fill="none" stroke="black" cx="208.9" cy="-594" rx="27" ry="18"/>
<text text-anchor="middle" x="208.9" y="-590.3" font-family="Times,serif" font-size="14.00">a</text>
</g>
<!-- a&#45;&gt;NOT_0 -->
<g id="edge3" class="edge">
<title>a&#45;&gt;NOT_0</title>
<path fill="none" stroke="black" d="M225.29,-579.17C236.8,-569.47 252.42,-556.29 265.64,-545.14"/>
<polygon fill="black" stroke="black" points="268.12,-547.63 273.51,-538.51 263.61,-542.28 268.12,-547.63"/>
</g>
<!-- AND_2 -->
<g id="node5" class="node">
<title>AND_2</title>
<ellipse fill="none" stroke="black" cx="165.9" cy="-522" rx="42.49" ry="18"/>
<text text-anchor="middle" x="165.9" y="-518.3" font-family="Times,serif" font-size="14.00">AND_2</text>
</g>
<!-- a&#45;&gt;AND_2 -->
<g id="edge4" class="edge">
<title>a&#45;&gt;AND_2</title>
<path fill="none" stroke="black" d="M199.14,-577.12C193.96,-568.68 187.46,-558.1 181.59,-548.55"/>
<polygon fill="black" stroke="black" points="184.43,-546.49 176.21,-539.8 178.47,-550.15 184.43,-546.49"/>
</g>
<!-- f -->
<g id="node22" class="node">
<title>f</title>
<ellipse fill="none" stroke="black" cx="165.9" cy="-450" rx="27" ry="18"/>
<text text-anchor="middle" x="165.9" y="-446.3" font-family="Times,serif" font-size="14.00">f</text>
</g>
<!-- AND_2&#45;&gt;f -->
<g id="edge21" class="edge">
<title>AND_2&#45;&gt;f</title>
<path fill="none" stroke="black" d="M165.9,-503.7C165.9,-495.98 165.9,-486.71 165.9,-478.11"/>
<polygon fill="black" stroke="black" points="169.4,-478.1 165.9,-468.1 162.4,-478.1 169.4,-478.1"/>
</g>
<!-- NOT_1 -->
<g id="node6" class="node">
<title>NOT_1</title>
<ellipse fill="none" stroke="black" cx="62.9" cy="-522" rx="42.49" ry="18"/>
<text text-anchor="middle" x="62.9" y="-518.3" font-family="Times,serif" font-size="14.00">NOT_1</text>
</g>
<!-- _01_ -->
<g id="node7" class="node">
<title>_01_</title>
<ellipse fill="none" stroke="black" cx="54.9" cy="-378" rx="31.4" ry="18"/>
<text text-anchor="middle" x="54.9" y="-374.3" font-family="Times,serif" font-size="14.00">_01_</text>
</g>
<!-- NOT_1&#45;&gt;_01_ -->
<g id="edge5" class="edge">
<title>NOT_1&#45;&gt;_01_</title>
<path fill="none" stroke="black" d="M61.93,-503.87C60.57,-479.67 58.06,-435.21 56.44,-406.39"/>
<polygon fill="black" stroke="black" points="59.92,-405.98 55.86,-396.19 52.93,-406.37 59.92,-405.98"/>
</g>
<!-- NOR_0 -->
<g id="node8" class="node">
<title>NOR_0</title>
<ellipse fill="none" stroke="black" cx="42.9" cy="-234" rx="42.79" ry="18"/>
<text text-anchor="middle" x="42.9" y="-230.3" font-family="Times,serif" font-size="14.00">NOR_0</text>
</g>
<!-- _01_&#45;&gt;NOR_0 -->
<g id="edge6" class="edge">
<title>_01_&#45;&gt;NOR_0</title>
<path fill="none" stroke="black" d="M53.45,-359.87C51.4,-335.67 47.65,-291.21 45.21,-262.39"/>
<polygon fill="black" stroke="black" points="48.68,-261.86 44.35,-252.19 41.7,-262.45 48.68,-261.86"/>
</g>
<!-- _05_ -->
<g id="node23" class="node">
<title>_05_</title>
<ellipse fill="none" stroke="black" cx="56.9" cy="-162" rx="31.4" ry="18"/>
<text text-anchor="middle" x="56.9" y="-158.3" font-family="Times,serif" font-size="14.00">_05_</text>
</g>
<!-- NOR_0&#45;&gt;_05_ -->
<g id="edge23" class="edge">
<title>NOR_0&#45;&gt;_05_</title>
<path fill="none" stroke="black" d="M46.29,-216.05C47.83,-208.35 49.69,-199.03 51.42,-190.36"/>
<polygon fill="black" stroke="black" points="54.91,-190.77 53.44,-180.28 48.05,-189.39 54.91,-190.77"/>
</g>
<!-- b -->
<g id="node9" class="node">
<title>b</title>
<ellipse fill="none" stroke="black" cx="121.9" cy="-594" rx="27" ry="18"/>
<text text-anchor="middle" x="121.9" y="-590.3" font-family="Times,serif" font-size="14.00">b</text>
</g>
<!-- b&#45;&gt;AND_2 -->
<g id="edge8" class="edge">
<title>b&#45;&gt;AND_2</title>
<path fill="none" stroke="black" d="M131.88,-577.12C137.18,-568.68 143.83,-558.1 149.84,-548.55"/>
<polygon fill="black" stroke="black" points="152.98,-550.13 155.34,-539.8 147.05,-546.4 152.98,-550.13"/>
</g>
<!-- b&#45;&gt;NOT_1 -->
<g id="edge7" class="edge">
<title>b&#45;&gt;NOT_1</title>
<path fill="none" stroke="black" d="M109.09,-577.81C101.5,-568.8 91.7,-557.18 83.09,-546.95"/>
<polygon fill="black" stroke="black" points="85.62,-544.52 76.49,-539.13 80.26,-549.04 85.62,-544.52"/>
</g>
<!-- NOT_2 -->
<g id="node10" class="node">
<title>NOT_2</title>
<ellipse fill="none" stroke="black" cx="417.9" cy="-378" rx="42.49" ry="18"/>
<text text-anchor="middle" x="417.9" y="-374.3" font-family="Times,serif" font-size="14.00">NOT_2</text>
</g>
<!-- g -->
<g id="node11" class="node">
<title>g</title>
<ellipse fill="none" stroke="black" cx="417.9" cy="-306" rx="27" ry="18"/>
<text text-anchor="middle" x="417.9" y="-302.3" font-family="Times,serif" font-size="14.00">g</text>
</g>
<!-- NOT_2&#45;&gt;g -->
<g id="edge9" class="edge">
<title>NOT_2&#45;&gt;g</title>
<path fill="none" stroke="black" d="M417.9,-359.7C417.9,-351.98 417.9,-342.71 417.9,-334.11"/>
<polygon fill="black" stroke="black" points="421.4,-334.1 417.9,-324.1 414.4,-334.1 421.4,-334.1"/>
</g>
<!-- _02_ -->
<g id="node12" class="node">
<title>_02_</title>
<ellipse fill="none" stroke="black" cx="405.9" cy="-450" rx="31.4" ry="18"/>
<text text-anchor="middle" x="405.9" y="-446.3" font-family="Times,serif" font-size="14.00">_02_</text>
</g>
<!-- _02_&#45;&gt;NOR_3 -->
<g id="edge11" class="edge">
<title>_02_&#45;&gt;NOR_3</title>
<path fill="none" stroke="black" d="M387.92,-435.17C375.1,-425.31 357.62,-411.86 342.97,-400.6"/>
<polygon fill="black" stroke="black" points="344.79,-397.58 334.73,-394.26 340.53,-403.13 344.79,-397.58"/>
</g>
<!-- _02_&#45;&gt;NOT_2 -->
<g id="edge10" class="edge">
<title>_02_&#45;&gt;NOT_2</title>
<path fill="none" stroke="black" d="M408.8,-432.05C410.12,-424.35 411.72,-415.03 413.21,-406.36"/>
<polygon fill="black" stroke="black" points="416.69,-406.72 414.93,-396.28 409.8,-405.54 416.69,-406.72"/>
</g>
<!-- AND_0 -->
<g id="node13" class="node">
<title>AND_0</title>
<ellipse fill="none" stroke="black" cx="145.9" cy="-234" rx="42.49" ry="18"/>
<text text-anchor="middle" x="145.9" y="-230.3" font-family="Times,serif" font-size="14.00">AND_0</text>
</g>
<!-- i -->
<g id="node14" class="node">
<title>i</title>
<ellipse fill="none" stroke="black" cx="145.9" cy="-162" rx="27" ry="18"/>
<text text-anchor="middle" x="145.9" y="-158.3" font-family="Times,serif" font-size="14.00">i</text>
</g>
<!-- AND_0&#45;&gt;i -->
<g id="edge12" class="edge">
<title>AND_0&#45;&gt;i</title>
<path fill="none" stroke="black" d="M145.9,-215.7C145.9,-207.98 145.9,-198.71 145.9,-190.11"/>
<polygon fill="black" stroke="black" points="149.4,-190.1 145.9,-180.1 142.4,-190.1 149.4,-190.1"/>
</g>
<!-- h -->
<g id="node15" class="node">
<title>h</title>
<ellipse fill="none" stroke="black" cx="108.9" cy="-306" rx="27" ry="18"/>
<text text-anchor="middle" x="108.9" y="-302.3" font-family="Times,serif" font-size="14.00">h</text>
</g>
<!-- h&#45;&gt;AND_0 -->
<g id="edge13" class="edge">
<title>h&#45;&gt;AND_0</title>
<path fill="none" stroke="black" d="M117.48,-288.76C121.9,-280.4 127.39,-270.02 132.36,-260.61"/>
<polygon fill="black" stroke="black" points="135.53,-262.11 137.1,-251.63 129.34,-258.84 135.53,-262.11"/>
</g>
<!-- _03_&#45;&gt;NOR_0 -->
<g id="edge16" class="edge">
<title>_03_&#45;&gt;NOR_0</title>
<path fill="none" stroke="black" d="M161.77,-293.6C139.37,-282.56 105.07,-265.65 79.07,-252.83"/>
<polygon fill="black" stroke="black" points="80.41,-249.59 69.9,-248.31 77.32,-255.87 80.41,-249.59"/>
</g>
<!-- _03_&#45;&gt;AND_0 -->
<g id="edge14" class="edge">
<title>_03_&#45;&gt;AND_0</title>
<path fill="none" stroke="black" d="M175.85,-288.76C171.19,-280.4 165.41,-270.02 160.16,-260.61"/>
<polygon fill="black" stroke="black" points="163.09,-258.67 155.16,-251.63 156.97,-262.07 163.09,-258.67"/>
</g>
<!-- AND_1 -->
<g id="node17" class="node">
<title>AND_1</title>
<ellipse fill="none" stroke="black" cx="247.9" cy="-234" rx="42.49" ry="18"/>
<text text-anchor="middle" x="247.9" y="-230.3" font-family="Times,serif" font-size="14.00">AND_1</text>
</g>
<!-- _03_&#45;&gt;AND_1 -->
<g id="edge15" class="edge">
<title>_03_&#45;&gt;AND_1</title>
<path fill="none" stroke="black" d="M198.57,-289.81C206.76,-280.71 217.34,-268.95 226.61,-258.65"/>
<polygon fill="black" stroke="black" points="229.29,-260.91 233.38,-251.13 224.08,-256.23 229.29,-260.91"/>
</g>
<!-- _04_ -->
<g id="node18" class="node">
<title>_04_</title>
<ellipse fill="none" stroke="black" cx="234.9" cy="-162" rx="31.4" ry="18"/>
<text text-anchor="middle" x="234.9" y="-158.3" font-family="Times,serif" font-size="14.00">_04_</text>
</g>
<!-- AND_1&#45;&gt;_04_ -->
<g id="edge17" class="edge">
<title>AND_1&#45;&gt;_04_</title>
<path fill="none" stroke="black" d="M244.68,-215.7C243.25,-207.98 241.53,-198.71 239.93,-190.11"/>
<polygon fill="black" stroke="black" points="243.34,-189.3 238.07,-180.1 236.46,-190.58 243.34,-189.3"/>
</g>
<!-- NOR_1 -->
<g id="node19" class="node">
<title>NOR_1</title>
<ellipse fill="none" stroke="black" cx="132.9" cy="-90" rx="42.79" ry="18"/>
<text text-anchor="middle" x="132.9" y="-86.3" font-family="Times,serif" font-size="14.00">NOR_1</text>
</g>
<!-- _04_&#45;&gt;NOR_1 -->
<g id="edge18" class="edge">
<title>_04_&#45;&gt;NOR_1</title>
<path fill="none" stroke="black" d="M215.23,-147.5C200.34,-137.29 179.64,-123.08 162.72,-111.46"/>
<polygon fill="black" stroke="black" points="164.49,-108.44 154.26,-105.66 160.53,-114.21 164.49,-108.44"/>
</g>
<!-- j -->
<g id="node24" class="node">
<title>j</title>
<ellipse fill="none" stroke="black" cx="132.9" cy="-18" rx="27" ry="18"/>
<text text-anchor="middle" x="132.9" y="-14.3" font-family="Times,serif" font-size="14.00">j</text>
</g>
<!-- NOR_1&#45;&gt;j -->
<g id="edge25" class="edge">
<title>NOR_1&#45;&gt;j</title>
<path fill="none" stroke="black" d="M132.9,-71.7C132.9,-63.98 132.9,-54.71 132.9,-46.11"/>
<polygon fill="black" stroke="black" points="136.4,-46.1 132.9,-36.1 129.4,-46.1 136.4,-46.1"/>
</g>
<!-- e -->
<g id="node20" class="node">
<title>e</title>
<ellipse fill="none" stroke="black" cx="237.9" cy="-450" rx="27" ry="18"/>
<text text-anchor="middle" x="237.9" y="-446.3" font-family="Times,serif" font-size="14.00">e</text>
</g>
<!-- e&#45;&gt;AND_1 -->
<g id="edge19" class="edge">
<title>e&#45;&gt;AND_1</title>
<path fill="none" stroke="black" d="M238.7,-431.85C240.43,-394.83 244.52,-307.18 246.62,-262.39"/>
<polygon fill="black" stroke="black" points="250.12,-262.38 247.09,-252.23 243.13,-262.06 250.12,-262.38"/>
</g>
<!-- XOR_0 -->
<g id="node21" class="node">
<title>XOR_0</title>
<ellipse fill="none" stroke="black" cx="165.9" cy="-378" rx="41.69" ry="18"/>
<text text-anchor="middle" x="165.9" y="-374.3" font-family="Times,serif" font-size="14.00">XOR_0</text>
</g>
<!-- e&#45;&gt;XOR_0 -->
<g id="edge20" class="edge">
<title>e&#45;&gt;XOR_0</title>
<path fill="none" stroke="black" d="M223.33,-434.83C213.58,-425.36 200.53,-412.67 189.34,-401.79"/>
<polygon fill="black" stroke="black" points="191.56,-399.07 181.95,-394.61 186.68,-404.09 191.56,-399.07"/>
</g>
<!-- XOR_0&#45;&gt;h -->
<g id="edge30" class="edge">
<title>XOR_0&#45;&gt;h</title>
<path fill="none" stroke="black" d="M152.68,-360.76C145.28,-351.68 135.93,-340.19 127.77,-330.18"/>
<polygon fill="black" stroke="black" points="130.29,-327.73 121.26,-322.19 124.86,-332.15 130.29,-327.73"/>
</g>
<!-- f&#45;&gt;XOR_0 -->
<g id="edge22" class="edge">
<title>f&#45;&gt;XOR_0</title>
<path fill="none" stroke="black" d="M165.9,-431.7C165.9,-423.98 165.9,-414.71 165.9,-406.11"/>
<polygon fill="black" stroke="black" points="169.4,-406.1 165.9,-396.1 162.4,-406.1 169.4,-406.1"/>
</g>
<!-- _05_&#45;&gt;NOR_1 -->
<g id="edge24" class="edge">
<title>_05_&#45;&gt;NOR_1</title>
<path fill="none" stroke="black" d="M73.01,-146.15C83.28,-136.7 96.78,-124.26 108.36,-113.6"/>
<polygon fill="black" stroke="black" points="111.03,-115.9 116.01,-106.55 106.28,-110.75 111.03,-115.9"/>
</g>
<!-- NOR_2 -->
<g id="node25" class="node">
<title>NOR_2</title>
<ellipse fill="none" stroke="black" cx="405.9" cy="-522" rx="42.79" ry="18"/>
<text text-anchor="middle" x="405.9" y="-518.3" font-family="Times,serif" font-size="14.00">NOR_2</text>
</g>
<!-- NOR_2&#45;&gt;_02_ -->
<g id="edge26" class="edge">
<title>NOR_2&#45;&gt;_02_</title>
<path fill="none" stroke="black" d="M405.9,-503.7C405.9,-495.98 405.9,-486.71 405.9,-478.11"/>
<polygon fill="black" stroke="black" points="409.4,-478.1 405.9,-468.1 402.4,-478.1 409.4,-478.1"/>
</g>
<!-- c -->
<g id="node26" class="node">
<title>c</title>
<ellipse fill="none" stroke="black" cx="369.9" cy="-594" rx="27" ry="18"/>
<text text-anchor="middle" x="369.9" y="-590.3" font-family="Times,serif" font-size="14.00">c</text>
</g>
<!-- c&#45;&gt;NOR_2 -->
<g id="edge27" class="edge">
<title>c&#45;&gt;NOR_2</title>
<path fill="none" stroke="black" d="M378.25,-576.76C382.44,-568.61 387.62,-558.53 392.37,-549.31"/>
<polygon fill="black" stroke="black" points="395.63,-550.62 397.09,-540.12 389.4,-547.42 395.63,-550.62"/>
</g>
<!-- d -->
<g id="node27" class="node">
<title>d</title>
<ellipse fill="none" stroke="black" cx="441.9" cy="-594" rx="27" ry="18"/>
<text text-anchor="middle" x="441.9" y="-590.3" font-family="Times,serif" font-size="14.00">d</text>
</g>
<!-- d&#45;&gt;NOR_2 -->
<g id="edge28" class="edge">
<title>d&#45;&gt;NOR_2</title>
<path fill="none" stroke="black" d="M433.55,-576.76C429.35,-568.61 424.17,-558.53 419.43,-549.31"/>
<polygon fill="black" stroke="black" points="422.39,-547.42 414.7,-540.12 416.16,-550.62 422.39,-547.42"/>
</g>
</g>
</svg>
